<mxfile host="Electron" agent="Mozilla/5.0 (Windows NT 10.0; Win64; x64) AppleWebKit/537.36 (KHTML, like Gecko) draw.io/26.0.9 Chrome/128.0.6613.186 Electron/32.2.5 Safari/537.36" version="26.0.9">
  <diagram name="Page-1" id="eHWCF1_lmu0BEY_m_fHJ">
    <mxGraphModel dx="1500" dy="911" grid="1" gridSize="10" guides="1" tooltips="1" connect="1" arrows="1" fold="1" page="1" pageScale="1" pageWidth="850" pageHeight="1100" math="0" shadow="0">
      <root>
        <mxCell id="0" />
        <mxCell id="1" parent="0" />
        <mxCell id="RhXkEHR4p6690tRJ8TY4-12" style="edgeStyle=orthogonalEdgeStyle;shape=connector;rounded=0;orthogonalLoop=1;jettySize=auto;html=1;exitX=0.25;exitY=1;exitDx=0;exitDy=0;entryX=0.25;entryY=0;entryDx=0;entryDy=0;strokeColor=default;align=center;verticalAlign=middle;fontFamily=Helvetica;fontSize=11;fontColor=default;labelBackgroundColor=default;startFill=0;endArrow=none;" edge="1" parent="1" source="RhXkEHR4p6690tRJ8TY4-1" target="RhXkEHR4p6690tRJ8TY4-3">
          <mxGeometry relative="1" as="geometry" />
        </mxCell>
        <mxCell id="RhXkEHR4p6690tRJ8TY4-1" value="ESP32" style="rounded=1;whiteSpace=wrap;html=1;" vertex="1" parent="1">
          <mxGeometry x="230" y="270" width="120" height="60" as="geometry" />
        </mxCell>
        <mxCell id="RhXkEHR4p6690tRJ8TY4-2" value="Power supply" style="rounded=1;whiteSpace=wrap;html=1;" vertex="1" parent="1">
          <mxGeometry x="230" y="160" width="120" height="60" as="geometry" />
        </mxCell>
        <mxCell id="RhXkEHR4p6690tRJ8TY4-3" value="2x L298N" style="rounded=1;whiteSpace=wrap;html=1;" vertex="1" parent="1">
          <mxGeometry x="230" y="390" width="120" height="60" as="geometry" />
        </mxCell>
        <mxCell id="RhXkEHR4p6690tRJ8TY4-40" style="edgeStyle=orthogonalEdgeStyle;shape=connector;rounded=0;orthogonalLoop=1;jettySize=auto;html=1;exitX=0.25;exitY=1;exitDx=0;exitDy=0;entryX=0.25;entryY=1;entryDx=0;entryDy=0;strokeColor=default;align=center;verticalAlign=middle;fontFamily=Helvetica;fontSize=11;fontColor=default;labelBackgroundColor=default;startFill=0;endArrow=none;" edge="1" parent="1" source="RhXkEHR4p6690tRJ8TY4-6" target="RhXkEHR4p6690tRJ8TY4-19">
          <mxGeometry relative="1" as="geometry" />
        </mxCell>
        <mxCell id="RhXkEHR4p6690tRJ8TY4-6" value="Encoder" style="rounded=1;whiteSpace=wrap;html=1;" vertex="1" parent="1">
          <mxGeometry x="460" y="270" width="120" height="60" as="geometry" />
        </mxCell>
        <mxCell id="RhXkEHR4p6690tRJ8TY4-10" style="edgeStyle=orthogonalEdgeStyle;shape=connector;rounded=0;orthogonalLoop=1;jettySize=auto;html=1;exitX=1;exitY=0.5;exitDx=0;exitDy=0;strokeColor=default;align=center;verticalAlign=middle;fontFamily=Helvetica;fontSize=11;fontColor=default;labelBackgroundColor=default;startFill=0;endArrow=none;entryX=0;entryY=0.5;entryDx=0;entryDy=0;" edge="1" parent="1" source="RhXkEHR4p6690tRJ8TY4-7" target="RhXkEHR4p6690tRJ8TY4-1">
          <mxGeometry relative="1" as="geometry">
            <mxPoint x="220" y="300.1428571428571" as="targetPoint" />
          </mxGeometry>
        </mxCell>
        <mxCell id="RhXkEHR4p6690tRJ8TY4-7" value="PC" style="rounded=1;whiteSpace=wrap;html=1;" vertex="1" parent="1">
          <mxGeometry x="60" y="270" width="120" height="60" as="geometry" />
        </mxCell>
        <mxCell id="RhXkEHR4p6690tRJ8TY4-8" value="DC Motor" style="rounded=1;whiteSpace=wrap;html=1;" vertex="1" parent="1">
          <mxGeometry x="230" y="470" width="120" height="60" as="geometry" />
        </mxCell>
        <mxCell id="RhXkEHR4p6690tRJ8TY4-11" value="USB" style="text;html=1;align=center;verticalAlign=middle;whiteSpace=wrap;rounded=0;fontFamily=Helvetica;fontSize=7;fontColor=default;labelBackgroundColor=default;" vertex="1" parent="1">
          <mxGeometry x="226" y="292" width="30" height="15" as="geometry" />
        </mxCell>
        <mxCell id="RhXkEHR4p6690tRJ8TY4-13" value="In1" style="text;html=1;align=center;verticalAlign=middle;whiteSpace=wrap;rounded=0;fontFamily=Helvetica;fontSize=7;fontColor=default;labelBackgroundColor=default;" vertex="1" parent="1">
          <mxGeometry x="253" y="315" width="15" height="15" as="geometry" />
        </mxCell>
        <mxCell id="RhXkEHR4p6690tRJ8TY4-14" value="In2" style="text;html=1;align=center;verticalAlign=middle;whiteSpace=wrap;rounded=0;fontFamily=Helvetica;fontSize=7;fontColor=default;labelBackgroundColor=default;" vertex="1" parent="1">
          <mxGeometry x="275" y="315" width="10" height="15" as="geometry" />
        </mxCell>
        <mxCell id="RhXkEHR4p6690tRJ8TY4-15" value="ena" style="text;html=1;align=center;verticalAlign=middle;whiteSpace=wrap;rounded=0;fontFamily=Helvetica;fontSize=7;fontColor=default;labelBackgroundColor=default;" vertex="1" parent="1">
          <mxGeometry x="294" y="315" width="10" height="15" as="geometry" />
        </mxCell>
        <mxCell id="RhXkEHR4p6690tRJ8TY4-16" style="edgeStyle=orthogonalEdgeStyle;shape=connector;rounded=0;orthogonalLoop=1;jettySize=auto;html=1;exitX=0.5;exitY=1;exitDx=0;exitDy=0;entryX=0.413;entryY=-0.005;entryDx=0;entryDy=0;entryPerimeter=0;strokeColor=default;align=center;verticalAlign=middle;fontFamily=Helvetica;fontSize=11;fontColor=default;labelBackgroundColor=default;startFill=0;endArrow=none;" edge="1" parent="1" source="RhXkEHR4p6690tRJ8TY4-14" target="RhXkEHR4p6690tRJ8TY4-3">
          <mxGeometry relative="1" as="geometry" />
        </mxCell>
        <mxCell id="RhXkEHR4p6690tRJ8TY4-17" style="edgeStyle=orthogonalEdgeStyle;shape=connector;rounded=0;orthogonalLoop=1;jettySize=auto;html=1;exitX=0.5;exitY=1;exitDx=0;exitDy=0;entryX=0.573;entryY=0.014;entryDx=0;entryDy=0;entryPerimeter=0;strokeColor=default;align=center;verticalAlign=middle;fontFamily=Helvetica;fontSize=11;fontColor=default;labelBackgroundColor=default;startFill=0;endArrow=none;" edge="1" parent="1" source="RhXkEHR4p6690tRJ8TY4-15" target="RhXkEHR4p6690tRJ8TY4-3">
          <mxGeometry relative="1" as="geometry" />
        </mxCell>
        <mxCell id="RhXkEHR4p6690tRJ8TY4-18" value="5V" style="text;html=1;align=center;verticalAlign=middle;whiteSpace=wrap;rounded=0;fontFamily=Helvetica;fontSize=7;fontColor=default;labelBackgroundColor=default;" vertex="1" parent="1">
          <mxGeometry x="311" y="315" width="10" height="15" as="geometry" />
        </mxCell>
        <mxCell id="RhXkEHR4p6690tRJ8TY4-19" value="GND" style="text;html=1;align=center;verticalAlign=middle;whiteSpace=wrap;rounded=0;fontFamily=Helvetica;fontSize=7;fontColor=default;labelBackgroundColor=default;" vertex="1" parent="1">
          <mxGeometry x="330" y="315" width="10" height="15" as="geometry" />
        </mxCell>
        <mxCell id="RhXkEHR4p6690tRJ8TY4-20" style="edgeStyle=orthogonalEdgeStyle;shape=connector;rounded=0;orthogonalLoop=1;jettySize=auto;html=1;exitX=0.5;exitY=1;exitDx=0;exitDy=0;entryX=0.717;entryY=0.008;entryDx=0;entryDy=0;entryPerimeter=0;strokeColor=default;align=center;verticalAlign=middle;fontFamily=Helvetica;fontSize=11;fontColor=default;labelBackgroundColor=default;startFill=0;endArrow=none;" edge="1" parent="1" source="RhXkEHR4p6690tRJ8TY4-18" target="RhXkEHR4p6690tRJ8TY4-3">
          <mxGeometry relative="1" as="geometry" />
        </mxCell>
        <mxCell id="RhXkEHR4p6690tRJ8TY4-21" style="edgeStyle=orthogonalEdgeStyle;shape=connector;rounded=0;orthogonalLoop=1;jettySize=auto;html=1;exitX=0.25;exitY=1;exitDx=0;exitDy=0;entryX=0.856;entryY=0.002;entryDx=0;entryDy=0;entryPerimeter=0;strokeColor=default;align=center;verticalAlign=middle;fontFamily=Helvetica;fontSize=11;fontColor=default;labelBackgroundColor=default;startFill=0;endArrow=none;" edge="1" parent="1" source="RhXkEHR4p6690tRJ8TY4-19" target="RhXkEHR4p6690tRJ8TY4-3">
          <mxGeometry relative="1" as="geometry" />
        </mxCell>
        <mxCell id="RhXkEHR4p6690tRJ8TY4-22" value="In1" style="text;html=1;align=center;verticalAlign=middle;whiteSpace=wrap;rounded=0;fontFamily=Helvetica;fontSize=7;fontColor=default;labelBackgroundColor=default;" vertex="1" parent="1">
          <mxGeometry x="253" y="390" width="15" height="15" as="geometry" />
        </mxCell>
        <mxCell id="RhXkEHR4p6690tRJ8TY4-23" value="In2" style="text;html=1;align=center;verticalAlign=middle;whiteSpace=wrap;rounded=0;fontFamily=Helvetica;fontSize=7;fontColor=default;labelBackgroundColor=default;" vertex="1" parent="1">
          <mxGeometry x="275" y="390" width="10" height="15" as="geometry" />
        </mxCell>
        <mxCell id="RhXkEHR4p6690tRJ8TY4-24" value="ena" style="text;html=1;align=center;verticalAlign=middle;whiteSpace=wrap;rounded=0;fontFamily=Helvetica;fontSize=7;fontColor=default;labelBackgroundColor=default;" vertex="1" parent="1">
          <mxGeometry x="294" y="390" width="10" height="15" as="geometry" />
        </mxCell>
        <mxCell id="RhXkEHR4p6690tRJ8TY4-25" value="Vss" style="text;html=1;align=center;verticalAlign=middle;whiteSpace=wrap;rounded=0;fontFamily=Helvetica;fontSize=7;fontColor=default;labelBackgroundColor=default;" vertex="1" parent="1">
          <mxGeometry x="311" y="390" width="10" height="15" as="geometry" />
        </mxCell>
        <mxCell id="RhXkEHR4p6690tRJ8TY4-26" value="GND" style="text;html=1;align=center;verticalAlign=middle;whiteSpace=wrap;rounded=0;fontFamily=Helvetica;fontSize=7;fontColor=default;labelBackgroundColor=default;" vertex="1" parent="1">
          <mxGeometry x="330" y="390" width="10" height="15" as="geometry" />
        </mxCell>
        <mxCell id="RhXkEHR4p6690tRJ8TY4-27" value="Out1" style="text;html=1;align=center;verticalAlign=middle;whiteSpace=wrap;rounded=0;fontFamily=Helvetica;fontSize=7;fontColor=default;labelBackgroundColor=default;" vertex="1" parent="1">
          <mxGeometry x="256" y="435" width="15" height="15" as="geometry" />
        </mxCell>
        <mxCell id="RhXkEHR4p6690tRJ8TY4-50" style="edgeStyle=orthogonalEdgeStyle;shape=connector;rounded=0;orthogonalLoop=1;jettySize=auto;html=1;exitX=0.5;exitY=1;exitDx=0;exitDy=0;entryX=0.5;entryY=0;entryDx=0;entryDy=0;strokeColor=default;align=center;verticalAlign=middle;fontFamily=Helvetica;fontSize=11;fontColor=default;labelBackgroundColor=default;startFill=0;endArrow=none;" edge="1" parent="1" source="RhXkEHR4p6690tRJ8TY4-28" target="RhXkEHR4p6690tRJ8TY4-45">
          <mxGeometry relative="1" as="geometry" />
        </mxCell>
        <mxCell id="RhXkEHR4p6690tRJ8TY4-28" value="Out2" style="text;html=1;align=center;verticalAlign=middle;whiteSpace=wrap;rounded=0;fontFamily=Helvetica;fontSize=7;fontColor=default;labelBackgroundColor=default;" vertex="1" parent="1">
          <mxGeometry x="278" y="435" width="10" height="15" as="geometry" />
        </mxCell>
        <mxCell id="RhXkEHR4p6690tRJ8TY4-29" style="edgeStyle=orthogonalEdgeStyle;shape=connector;rounded=0;orthogonalLoop=1;jettySize=auto;html=1;exitX=0.5;exitY=1;exitDx=0;exitDy=0;strokeColor=default;align=center;verticalAlign=middle;fontFamily=Helvetica;fontSize=11;fontColor=default;labelBackgroundColor=default;startFill=0;endArrow=none;entryX=0.5;entryY=0;entryDx=0;entryDy=0;" edge="1" parent="1" source="RhXkEHR4p6690tRJ8TY4-27" target="RhXkEHR4p6690tRJ8TY4-44">
          <mxGeometry relative="1" as="geometry">
            <mxPoint x="264" y="580" as="targetPoint" />
          </mxGeometry>
        </mxCell>
        <mxCell id="RhXkEHR4p6690tRJ8TY4-31" value="Vs" style="text;html=1;align=center;verticalAlign=middle;whiteSpace=wrap;rounded=0;fontFamily=Helvetica;fontSize=7;fontColor=default;labelBackgroundColor=default;" vertex="1" parent="1">
          <mxGeometry x="336" y="415" width="10" height="15" as="geometry" />
        </mxCell>
        <mxCell id="RhXkEHR4p6690tRJ8TY4-33" value="12V" style="text;html=1;align=center;verticalAlign=middle;whiteSpace=wrap;rounded=0;fontFamily=Helvetica;fontSize=7;fontColor=default;labelBackgroundColor=default;" vertex="1" parent="1">
          <mxGeometry x="304" y="205" width="10" height="15" as="geometry" />
        </mxCell>
        <mxCell id="RhXkEHR4p6690tRJ8TY4-34" value="GND" style="text;html=1;align=center;verticalAlign=middle;whiteSpace=wrap;rounded=0;fontFamily=Helvetica;fontSize=7;fontColor=default;labelBackgroundColor=default;" vertex="1" parent="1">
          <mxGeometry x="278" y="205" width="10" height="15" as="geometry" />
        </mxCell>
        <mxCell id="RhXkEHR4p6690tRJ8TY4-35" value="PinZ" style="text;html=1;align=center;verticalAlign=middle;whiteSpace=wrap;rounded=0;fontFamily=Helvetica;fontSize=7;fontColor=default;labelBackgroundColor=default;" vertex="1" parent="1">
          <mxGeometry x="336" y="290" width="10" height="15" as="geometry" />
        </mxCell>
        <mxCell id="RhXkEHR4p6690tRJ8TY4-36" value="PinZ" style="text;html=1;align=center;verticalAlign=middle;whiteSpace=wrap;rounded=0;fontFamily=Helvetica;fontSize=7;fontColor=default;labelBackgroundColor=default;" vertex="1" parent="1">
          <mxGeometry x="464" y="292.5" width="10" height="15" as="geometry" />
        </mxCell>
        <mxCell id="RhXkEHR4p6690tRJ8TY4-37" value="GND" style="text;html=1;align=center;verticalAlign=middle;whiteSpace=wrap;rounded=0;fontFamily=Helvetica;fontSize=7;fontColor=default;labelBackgroundColor=default;" vertex="1" parent="1">
          <mxGeometry x="483" y="313" width="10" height="15" as="geometry" />
        </mxCell>
        <mxCell id="RhXkEHR4p6690tRJ8TY4-39" style="edgeStyle=orthogonalEdgeStyle;shape=connector;rounded=0;orthogonalLoop=1;jettySize=auto;html=1;exitX=0.5;exitY=1;exitDx=0;exitDy=0;entryX=0.5;entryY=0;entryDx=0;entryDy=0;strokeColor=default;align=center;verticalAlign=middle;fontFamily=Helvetica;fontSize=11;fontColor=default;labelBackgroundColor=default;startFill=0;endArrow=none;jumpStyle=arc;" edge="1" parent="1" source="RhXkEHR4p6690tRJ8TY4-38" target="RhXkEHR4p6690tRJ8TY4-25">
          <mxGeometry relative="1" as="geometry" />
        </mxCell>
        <mxCell id="RhXkEHR4p6690tRJ8TY4-38" value="5V" style="text;html=1;align=center;verticalAlign=middle;whiteSpace=wrap;rounded=0;fontFamily=Helvetica;fontSize=7;fontColor=default;labelBackgroundColor=default;" vertex="1" parent="1">
          <mxGeometry x="509" y="313" width="10" height="15" as="geometry" />
        </mxCell>
        <mxCell id="RhXkEHR4p6690tRJ8TY4-41" style="edgeStyle=orthogonalEdgeStyle;shape=connector;rounded=0;orthogonalLoop=1;jettySize=auto;html=1;entryX=1;entryY=0.5;entryDx=0;entryDy=0;strokeColor=default;align=center;verticalAlign=middle;fontFamily=Helvetica;fontSize=11;fontColor=default;labelBackgroundColor=default;startFill=0;endArrow=none;" edge="1" parent="1" source="RhXkEHR4p6690tRJ8TY4-6" target="RhXkEHR4p6690tRJ8TY4-1">
          <mxGeometry relative="1" as="geometry" />
        </mxCell>
        <mxCell id="RhXkEHR4p6690tRJ8TY4-44" value="Out1" style="text;html=1;align=center;verticalAlign=middle;whiteSpace=wrap;rounded=0;fontFamily=Helvetica;fontSize=7;fontColor=default;labelBackgroundColor=default;" vertex="1" parent="1">
          <mxGeometry x="256" y="470" width="15" height="15" as="geometry" />
        </mxCell>
        <mxCell id="RhXkEHR4p6690tRJ8TY4-45" value="Out2" style="text;html=1;align=center;verticalAlign=middle;whiteSpace=wrap;rounded=0;fontFamily=Helvetica;fontSize=7;fontColor=default;labelBackgroundColor=default;" vertex="1" parent="1">
          <mxGeometry x="278" y="470" width="10" height="15" as="geometry" />
        </mxCell>
        <mxCell id="RhXkEHR4p6690tRJ8TY4-47" style="edgeStyle=orthogonalEdgeStyle;shape=connector;rounded=0;orthogonalLoop=1;jettySize=auto;html=1;exitX=0.5;exitY=1;exitDx=0;exitDy=0;strokeColor=default;align=center;verticalAlign=middle;fontFamily=Helvetica;fontSize=11;fontColor=default;labelBackgroundColor=default;startFill=0;endArrow=none;jumpStyle=arc;" edge="1" parent="1" source="RhXkEHR4p6690tRJ8TY4-34">
          <mxGeometry relative="1" as="geometry">
            <mxPoint x="370" y="350" as="targetPoint" />
            <Array as="points">
              <mxPoint x="283" y="260" />
              <mxPoint x="371" y="260" />
              <mxPoint x="371" y="350" />
            </Array>
          </mxGeometry>
        </mxCell>
        <mxCell id="RhXkEHR4p6690tRJ8TY4-48" style="edgeStyle=orthogonalEdgeStyle;shape=connector;rounded=0;orthogonalLoop=1;jettySize=auto;html=1;exitX=0.25;exitY=1;exitDx=0;exitDy=0;strokeColor=default;align=center;verticalAlign=middle;fontFamily=Helvetica;fontSize=11;fontColor=default;labelBackgroundColor=default;startFill=0;endArrow=none;entryX=1.003;entryY=0.574;entryDx=0;entryDy=0;entryPerimeter=0;jumpStyle=arc;" edge="1" parent="1" source="RhXkEHR4p6690tRJ8TY4-33" target="RhXkEHR4p6690tRJ8TY4-3">
          <mxGeometry relative="1" as="geometry">
            <mxPoint x="400" y="470" as="targetPoint" />
            <Array as="points">
              <mxPoint x="307" y="240" />
              <mxPoint x="440" y="240" />
              <mxPoint x="440" y="424" />
            </Array>
          </mxGeometry>
        </mxCell>
        <mxCell id="RhXkEHR4p6690tRJ8TY4-49" value="USB" style="text;html=1;align=center;verticalAlign=middle;whiteSpace=wrap;rounded=0;fontFamily=Helvetica;fontSize=7;fontColor=default;labelBackgroundColor=default;" vertex="1" parent="1">
          <mxGeometry x="150" y="290" width="30" height="15" as="geometry" />
        </mxCell>
        <mxCell id="RhXkEHR4p6690tRJ8TY4-51" style="edgeStyle=orthogonalEdgeStyle;shape=connector;rounded=0;orthogonalLoop=1;jettySize=auto;html=1;exitX=0.25;exitY=1;exitDx=0;exitDy=0;entryX=0.25;entryY=0;entryDx=0;entryDy=0;strokeColor=default;align=center;verticalAlign=middle;fontFamily=Helvetica;fontSize=11;fontColor=default;labelBackgroundColor=default;startFill=0;endArrow=none;" edge="1" parent="1" source="RhXkEHR4p6690tRJ8TY4-52" target="RhXkEHR4p6690tRJ8TY4-54">
          <mxGeometry relative="1" as="geometry" />
        </mxCell>
        <mxCell id="RhXkEHR4p6690tRJ8TY4-99" style="edgeStyle=orthogonalEdgeStyle;shape=connector;rounded=0;orthogonalLoop=1;jettySize=auto;html=1;exitX=1;exitY=0.25;exitDx=0;exitDy=0;entryX=0;entryY=0.5;entryDx=0;entryDy=0;strokeColor=default;align=center;verticalAlign=middle;fontFamily=Helvetica;fontSize=11;fontColor=default;labelBackgroundColor=default;startFill=0;endArrow=none;" edge="1" parent="1" source="RhXkEHR4p6690tRJ8TY4-52" target="RhXkEHR4p6690tRJ8TY4-93">
          <mxGeometry relative="1" as="geometry" />
        </mxCell>
        <mxCell id="RhXkEHR4p6690tRJ8TY4-52" value="ESP32" style="rounded=1;whiteSpace=wrap;html=1;" vertex="1" parent="1">
          <mxGeometry x="830" y="260" width="120" height="60" as="geometry" />
        </mxCell>
        <mxCell id="RhXkEHR4p6690tRJ8TY4-53" value="Power supply" style="rounded=1;whiteSpace=wrap;html=1;" vertex="1" parent="1">
          <mxGeometry x="830" y="150" width="120" height="60" as="geometry" />
        </mxCell>
        <mxCell id="RhXkEHR4p6690tRJ8TY4-54" value="L298N" style="rounded=1;whiteSpace=wrap;html=1;" vertex="1" parent="1">
          <mxGeometry x="830" y="380" width="120" height="60" as="geometry" />
        </mxCell>
        <mxCell id="RhXkEHR4p6690tRJ8TY4-55" style="edgeStyle=orthogonalEdgeStyle;shape=connector;rounded=0;orthogonalLoop=1;jettySize=auto;html=1;exitX=0.25;exitY=1;exitDx=0;exitDy=0;entryX=0.25;entryY=1;entryDx=0;entryDy=0;strokeColor=default;align=center;verticalAlign=middle;fontFamily=Helvetica;fontSize=11;fontColor=default;labelBackgroundColor=default;startFill=0;endArrow=none;" edge="1" parent="1" source="RhXkEHR4p6690tRJ8TY4-56" target="RhXkEHR4p6690tRJ8TY4-67">
          <mxGeometry relative="1" as="geometry" />
        </mxCell>
        <mxCell id="RhXkEHR4p6690tRJ8TY4-56" value="Button 1" style="rounded=1;whiteSpace=wrap;html=1;" vertex="1" parent="1">
          <mxGeometry x="1064" y="282.5" width="120" height="60" as="geometry" />
        </mxCell>
        <mxCell id="RhXkEHR4p6690tRJ8TY4-57" style="edgeStyle=orthogonalEdgeStyle;shape=connector;rounded=0;orthogonalLoop=1;jettySize=auto;html=1;exitX=1;exitY=0.5;exitDx=0;exitDy=0;strokeColor=default;align=center;verticalAlign=middle;fontFamily=Helvetica;fontSize=11;fontColor=default;labelBackgroundColor=default;startFill=0;endArrow=none;entryX=0;entryY=0.5;entryDx=0;entryDy=0;" edge="1" parent="1" source="RhXkEHR4p6690tRJ8TY4-58" target="RhXkEHR4p6690tRJ8TY4-52">
          <mxGeometry relative="1" as="geometry">
            <mxPoint x="820" y="290.1428571428571" as="targetPoint" />
          </mxGeometry>
        </mxCell>
        <mxCell id="RhXkEHR4p6690tRJ8TY4-58" value="PC" style="rounded=1;whiteSpace=wrap;html=1;" vertex="1" parent="1">
          <mxGeometry x="660" y="260" width="120" height="60" as="geometry" />
        </mxCell>
        <mxCell id="RhXkEHR4p6690tRJ8TY4-59" value="DC Motor" style="rounded=1;whiteSpace=wrap;html=1;" vertex="1" parent="1">
          <mxGeometry x="830" y="460" width="120" height="60" as="geometry" />
        </mxCell>
        <mxCell id="RhXkEHR4p6690tRJ8TY4-60" value="USB" style="text;html=1;align=center;verticalAlign=middle;whiteSpace=wrap;rounded=0;fontFamily=Helvetica;fontSize=7;fontColor=default;labelBackgroundColor=default;" vertex="1" parent="1">
          <mxGeometry x="826" y="282" width="30" height="15" as="geometry" />
        </mxCell>
        <mxCell id="RhXkEHR4p6690tRJ8TY4-61" value="In1" style="text;html=1;align=center;verticalAlign=middle;whiteSpace=wrap;rounded=0;fontFamily=Helvetica;fontSize=7;fontColor=default;labelBackgroundColor=default;" vertex="1" parent="1">
          <mxGeometry x="853" y="305" width="15" height="15" as="geometry" />
        </mxCell>
        <mxCell id="RhXkEHR4p6690tRJ8TY4-62" value="In2" style="text;html=1;align=center;verticalAlign=middle;whiteSpace=wrap;rounded=0;fontFamily=Helvetica;fontSize=7;fontColor=default;labelBackgroundColor=default;" vertex="1" parent="1">
          <mxGeometry x="875" y="305" width="10" height="15" as="geometry" />
        </mxCell>
        <mxCell id="RhXkEHR4p6690tRJ8TY4-63" value="ena" style="text;html=1;align=center;verticalAlign=middle;whiteSpace=wrap;rounded=0;fontFamily=Helvetica;fontSize=7;fontColor=default;labelBackgroundColor=default;" vertex="1" parent="1">
          <mxGeometry x="894" y="305" width="10" height="15" as="geometry" />
        </mxCell>
        <mxCell id="RhXkEHR4p6690tRJ8TY4-64" style="edgeStyle=orthogonalEdgeStyle;shape=connector;rounded=0;orthogonalLoop=1;jettySize=auto;html=1;exitX=0.5;exitY=1;exitDx=0;exitDy=0;entryX=0.413;entryY=-0.005;entryDx=0;entryDy=0;entryPerimeter=0;strokeColor=default;align=center;verticalAlign=middle;fontFamily=Helvetica;fontSize=11;fontColor=default;labelBackgroundColor=default;startFill=0;endArrow=none;" edge="1" parent="1" source="RhXkEHR4p6690tRJ8TY4-62" target="RhXkEHR4p6690tRJ8TY4-54">
          <mxGeometry relative="1" as="geometry" />
        </mxCell>
        <mxCell id="RhXkEHR4p6690tRJ8TY4-65" style="edgeStyle=orthogonalEdgeStyle;shape=connector;rounded=0;orthogonalLoop=1;jettySize=auto;html=1;exitX=0.5;exitY=1;exitDx=0;exitDy=0;entryX=0.573;entryY=0.014;entryDx=0;entryDy=0;entryPerimeter=0;strokeColor=default;align=center;verticalAlign=middle;fontFamily=Helvetica;fontSize=11;fontColor=default;labelBackgroundColor=default;startFill=0;endArrow=none;" edge="1" parent="1" source="RhXkEHR4p6690tRJ8TY4-63" target="RhXkEHR4p6690tRJ8TY4-54">
          <mxGeometry relative="1" as="geometry" />
        </mxCell>
        <mxCell id="RhXkEHR4p6690tRJ8TY4-66" value="5V" style="text;html=1;align=center;verticalAlign=middle;whiteSpace=wrap;rounded=0;fontFamily=Helvetica;fontSize=7;fontColor=default;labelBackgroundColor=default;" vertex="1" parent="1">
          <mxGeometry x="911" y="305" width="10" height="15" as="geometry" />
        </mxCell>
        <mxCell id="RhXkEHR4p6690tRJ8TY4-67" value="GND" style="text;html=1;align=center;verticalAlign=middle;whiteSpace=wrap;rounded=0;fontFamily=Helvetica;fontSize=7;fontColor=default;labelBackgroundColor=default;" vertex="1" parent="1">
          <mxGeometry x="930" y="305" width="10" height="15" as="geometry" />
        </mxCell>
        <mxCell id="RhXkEHR4p6690tRJ8TY4-68" style="edgeStyle=orthogonalEdgeStyle;shape=connector;rounded=0;orthogonalLoop=1;jettySize=auto;html=1;exitX=0.5;exitY=1;exitDx=0;exitDy=0;entryX=0.717;entryY=0.008;entryDx=0;entryDy=0;entryPerimeter=0;strokeColor=default;align=center;verticalAlign=middle;fontFamily=Helvetica;fontSize=11;fontColor=default;labelBackgroundColor=default;startFill=0;endArrow=none;" edge="1" parent="1" source="RhXkEHR4p6690tRJ8TY4-66" target="RhXkEHR4p6690tRJ8TY4-54">
          <mxGeometry relative="1" as="geometry" />
        </mxCell>
        <mxCell id="RhXkEHR4p6690tRJ8TY4-69" style="edgeStyle=orthogonalEdgeStyle;shape=connector;rounded=0;orthogonalLoop=1;jettySize=auto;html=1;exitX=0.25;exitY=1;exitDx=0;exitDy=0;entryX=0.856;entryY=0.002;entryDx=0;entryDy=0;entryPerimeter=0;strokeColor=default;align=center;verticalAlign=middle;fontFamily=Helvetica;fontSize=11;fontColor=default;labelBackgroundColor=default;startFill=0;endArrow=none;" edge="1" parent="1" source="RhXkEHR4p6690tRJ8TY4-67" target="RhXkEHR4p6690tRJ8TY4-54">
          <mxGeometry relative="1" as="geometry" />
        </mxCell>
        <mxCell id="RhXkEHR4p6690tRJ8TY4-70" value="In1" style="text;html=1;align=center;verticalAlign=middle;whiteSpace=wrap;rounded=0;fontFamily=Helvetica;fontSize=7;fontColor=default;labelBackgroundColor=default;" vertex="1" parent="1">
          <mxGeometry x="853" y="380" width="15" height="15" as="geometry" />
        </mxCell>
        <mxCell id="RhXkEHR4p6690tRJ8TY4-71" value="In2" style="text;html=1;align=center;verticalAlign=middle;whiteSpace=wrap;rounded=0;fontFamily=Helvetica;fontSize=7;fontColor=default;labelBackgroundColor=default;" vertex="1" parent="1">
          <mxGeometry x="875" y="380" width="10" height="15" as="geometry" />
        </mxCell>
        <mxCell id="RhXkEHR4p6690tRJ8TY4-72" value="ena" style="text;html=1;align=center;verticalAlign=middle;whiteSpace=wrap;rounded=0;fontFamily=Helvetica;fontSize=7;fontColor=default;labelBackgroundColor=default;" vertex="1" parent="1">
          <mxGeometry x="894" y="380" width="10" height="15" as="geometry" />
        </mxCell>
        <mxCell id="RhXkEHR4p6690tRJ8TY4-73" value="Vss" style="text;html=1;align=center;verticalAlign=middle;whiteSpace=wrap;rounded=0;fontFamily=Helvetica;fontSize=7;fontColor=default;labelBackgroundColor=default;" vertex="1" parent="1">
          <mxGeometry x="911" y="380" width="10" height="15" as="geometry" />
        </mxCell>
        <mxCell id="RhXkEHR4p6690tRJ8TY4-74" value="GND" style="text;html=1;align=center;verticalAlign=middle;whiteSpace=wrap;rounded=0;fontFamily=Helvetica;fontSize=7;fontColor=default;labelBackgroundColor=default;" vertex="1" parent="1">
          <mxGeometry x="930" y="380" width="10" height="15" as="geometry" />
        </mxCell>
        <mxCell id="RhXkEHR4p6690tRJ8TY4-75" value="Out1" style="text;html=1;align=center;verticalAlign=middle;whiteSpace=wrap;rounded=0;fontFamily=Helvetica;fontSize=7;fontColor=default;labelBackgroundColor=default;" vertex="1" parent="1">
          <mxGeometry x="856" y="425" width="15" height="15" as="geometry" />
        </mxCell>
        <mxCell id="RhXkEHR4p6690tRJ8TY4-76" style="edgeStyle=orthogonalEdgeStyle;shape=connector;rounded=0;orthogonalLoop=1;jettySize=auto;html=1;exitX=0.5;exitY=1;exitDx=0;exitDy=0;entryX=0.5;entryY=0;entryDx=0;entryDy=0;strokeColor=default;align=center;verticalAlign=middle;fontFamily=Helvetica;fontSize=11;fontColor=default;labelBackgroundColor=default;startFill=0;endArrow=none;" edge="1" parent="1" source="RhXkEHR4p6690tRJ8TY4-77" target="RhXkEHR4p6690tRJ8TY4-89">
          <mxGeometry relative="1" as="geometry" />
        </mxCell>
        <mxCell id="RhXkEHR4p6690tRJ8TY4-77" value="Out2" style="text;html=1;align=center;verticalAlign=middle;whiteSpace=wrap;rounded=0;fontFamily=Helvetica;fontSize=7;fontColor=default;labelBackgroundColor=default;" vertex="1" parent="1">
          <mxGeometry x="878" y="425" width="10" height="15" as="geometry" />
        </mxCell>
        <mxCell id="RhXkEHR4p6690tRJ8TY4-78" style="edgeStyle=orthogonalEdgeStyle;shape=connector;rounded=0;orthogonalLoop=1;jettySize=auto;html=1;exitX=0.5;exitY=1;exitDx=0;exitDy=0;strokeColor=default;align=center;verticalAlign=middle;fontFamily=Helvetica;fontSize=11;fontColor=default;labelBackgroundColor=default;startFill=0;endArrow=none;entryX=0.5;entryY=0;entryDx=0;entryDy=0;" edge="1" parent="1" source="RhXkEHR4p6690tRJ8TY4-75" target="RhXkEHR4p6690tRJ8TY4-88">
          <mxGeometry relative="1" as="geometry">
            <mxPoint x="864" y="570" as="targetPoint" />
          </mxGeometry>
        </mxCell>
        <mxCell id="RhXkEHR4p6690tRJ8TY4-79" value="Vs" style="text;html=1;align=center;verticalAlign=middle;whiteSpace=wrap;rounded=0;fontFamily=Helvetica;fontSize=7;fontColor=default;labelBackgroundColor=default;" vertex="1" parent="1">
          <mxGeometry x="936" y="405" width="10" height="15" as="geometry" />
        </mxCell>
        <mxCell id="RhXkEHR4p6690tRJ8TY4-80" value="12V" style="text;html=1;align=center;verticalAlign=middle;whiteSpace=wrap;rounded=0;fontFamily=Helvetica;fontSize=7;fontColor=default;labelBackgroundColor=default;" vertex="1" parent="1">
          <mxGeometry x="904" y="195" width="10" height="15" as="geometry" />
        </mxCell>
        <mxCell id="RhXkEHR4p6690tRJ8TY4-81" value="GND" style="text;html=1;align=center;verticalAlign=middle;whiteSpace=wrap;rounded=0;fontFamily=Helvetica;fontSize=7;fontColor=default;labelBackgroundColor=default;" vertex="1" parent="1">
          <mxGeometry x="878" y="195" width="10" height="15" as="geometry" />
        </mxCell>
        <mxCell id="RhXkEHR4p6690tRJ8TY4-82" value="Button1" style="text;html=1;align=center;verticalAlign=middle;whiteSpace=wrap;rounded=0;fontFamily=Helvetica;fontSize=7;fontColor=default;labelBackgroundColor=default;" vertex="1" parent="1">
          <mxGeometry x="931" y="288" width="10" height="15" as="geometry" />
        </mxCell>
        <mxCell id="RhXkEHR4p6690tRJ8TY4-83" value="Button1" style="text;html=1;align=center;verticalAlign=middle;whiteSpace=wrap;rounded=0;fontFamily=Helvetica;fontSize=7;fontColor=default;labelBackgroundColor=default;" vertex="1" parent="1">
          <mxGeometry x="1073" y="305" width="10" height="15" as="geometry" />
        </mxCell>
        <mxCell id="RhXkEHR4p6690tRJ8TY4-84" value="GND" style="text;html=1;align=center;verticalAlign=middle;whiteSpace=wrap;rounded=0;fontFamily=Helvetica;fontSize=7;fontColor=default;labelBackgroundColor=default;" vertex="1" parent="1">
          <mxGeometry x="1090" y="327.5" width="10" height="15" as="geometry" />
        </mxCell>
        <mxCell id="RhXkEHR4p6690tRJ8TY4-87" style="edgeStyle=orthogonalEdgeStyle;shape=connector;rounded=0;orthogonalLoop=1;jettySize=auto;html=1;entryX=0.998;entryY=0.628;entryDx=0;entryDy=0;strokeColor=default;align=center;verticalAlign=middle;fontFamily=Helvetica;fontSize=11;fontColor=default;labelBackgroundColor=default;startFill=0;endArrow=none;entryPerimeter=0;" edge="1" parent="1" source="RhXkEHR4p6690tRJ8TY4-56" target="RhXkEHR4p6690tRJ8TY4-52">
          <mxGeometry relative="1" as="geometry" />
        </mxCell>
        <mxCell id="RhXkEHR4p6690tRJ8TY4-88" value="Out1" style="text;html=1;align=center;verticalAlign=middle;whiteSpace=wrap;rounded=0;fontFamily=Helvetica;fontSize=7;fontColor=default;labelBackgroundColor=default;" vertex="1" parent="1">
          <mxGeometry x="856" y="460" width="15" height="15" as="geometry" />
        </mxCell>
        <mxCell id="RhXkEHR4p6690tRJ8TY4-89" value="Out2" style="text;html=1;align=center;verticalAlign=middle;whiteSpace=wrap;rounded=0;fontFamily=Helvetica;fontSize=7;fontColor=default;labelBackgroundColor=default;" vertex="1" parent="1">
          <mxGeometry x="878" y="460" width="10" height="15" as="geometry" />
        </mxCell>
        <mxCell id="RhXkEHR4p6690tRJ8TY4-91" style="edgeStyle=orthogonalEdgeStyle;shape=connector;rounded=0;orthogonalLoop=1;jettySize=auto;html=1;exitX=0.25;exitY=1;exitDx=0;exitDy=0;strokeColor=default;align=center;verticalAlign=middle;fontFamily=Helvetica;fontSize=11;fontColor=default;labelBackgroundColor=default;startFill=0;endArrow=none;entryX=1.003;entryY=0.574;entryDx=0;entryDy=0;entryPerimeter=0;jumpStyle=arc;" edge="1" parent="1" source="RhXkEHR4p6690tRJ8TY4-80" target="RhXkEHR4p6690tRJ8TY4-54">
          <mxGeometry relative="1" as="geometry">
            <mxPoint x="1000" y="460" as="targetPoint" />
            <Array as="points">
              <mxPoint x="907" y="230" />
              <mxPoint x="1040" y="230" />
              <mxPoint x="1040" y="414" />
            </Array>
          </mxGeometry>
        </mxCell>
        <mxCell id="RhXkEHR4p6690tRJ8TY4-92" value="USB" style="text;html=1;align=center;verticalAlign=middle;whiteSpace=wrap;rounded=0;fontFamily=Helvetica;fontSize=7;fontColor=default;labelBackgroundColor=default;" vertex="1" parent="1">
          <mxGeometry x="750" y="280" width="30" height="15" as="geometry" />
        </mxCell>
        <mxCell id="RhXkEHR4p6690tRJ8TY4-93" value="Button 2" style="rounded=1;whiteSpace=wrap;html=1;" vertex="1" parent="1">
          <mxGeometry x="1060" y="182.5" width="120" height="60" as="geometry" />
        </mxCell>
        <mxCell id="RhXkEHR4p6690tRJ8TY4-95" style="edgeStyle=orthogonalEdgeStyle;shape=connector;rounded=0;orthogonalLoop=1;jettySize=auto;html=1;exitX=0.5;exitY=1;exitDx=0;exitDy=0;strokeColor=default;align=center;verticalAlign=middle;fontFamily=Helvetica;fontSize=11;fontColor=default;labelBackgroundColor=default;startFill=0;endArrow=none;jumpStyle=arc;" edge="1" parent="1" source="RhXkEHR4p6690tRJ8TY4-81">
          <mxGeometry relative="1" as="geometry">
            <mxPoint x="971.1935602003527" y="363.09675844254036" as="targetPoint" />
            <Array as="points">
              <mxPoint x="883" y="250" />
              <mxPoint x="971" y="250" />
            </Array>
          </mxGeometry>
        </mxCell>
        <mxCell id="RhXkEHR4p6690tRJ8TY4-96" value="Button2" style="text;html=1;align=center;verticalAlign=middle;whiteSpace=wrap;rounded=0;fontFamily=Helvetica;fontSize=7;fontColor=default;labelBackgroundColor=default;" vertex="1" parent="1">
          <mxGeometry x="1070" y="205" width="10" height="15" as="geometry" />
        </mxCell>
        <mxCell id="RhXkEHR4p6690tRJ8TY4-97" value="Button2" style="text;html=1;align=center;verticalAlign=middle;whiteSpace=wrap;rounded=0;fontFamily=Helvetica;fontSize=7;fontColor=default;labelBackgroundColor=default;" vertex="1" parent="1">
          <mxGeometry x="931" y="270" width="10" height="15" as="geometry" />
        </mxCell>
        <mxCell id="RhXkEHR4p6690tRJ8TY4-101" style="edgeStyle=orthogonalEdgeStyle;shape=connector;rounded=0;orthogonalLoop=1;jettySize=auto;html=1;exitX=0.5;exitY=1;exitDx=0;exitDy=0;strokeColor=default;align=center;verticalAlign=middle;fontFamily=Helvetica;fontSize=11;fontColor=default;labelBackgroundColor=default;startFill=0;endArrow=none;jumpStyle=arc;" edge="1" parent="1" source="RhXkEHR4p6690tRJ8TY4-100">
          <mxGeometry relative="1" as="geometry">
            <mxPoint x="971" y="264" as="targetPoint" />
            <Array as="points">
              <mxPoint x="1088" y="262" />
              <mxPoint x="971" y="262" />
            </Array>
          </mxGeometry>
        </mxCell>
        <mxCell id="RhXkEHR4p6690tRJ8TY4-100" value="GND" style="text;html=1;align=center;verticalAlign=middle;whiteSpace=wrap;rounded=0;fontFamily=Helvetica;fontSize=7;fontColor=default;labelBackgroundColor=default;" vertex="1" parent="1">
          <mxGeometry x="1083" y="227.5" width="10" height="15" as="geometry" />
        </mxCell>
      </root>
    </mxGraphModel>
  </diagram>
</mxfile>
